<svg xmlns="http://www.w3.org/2000/svg" width="420.0mm" height="297.0mm" viewBox="0 0 420.0 297.0" font-family="Helvetica, Arial, sans-serif">
<defs><pattern id="hatch" width="1.2" height="1.2" patternUnits="userSpaceOnUse" patternTransform="rotate(45)"><line x1="0" y1="0" x2="0" y2="1.2" stroke="#333" stroke-width="0.18"/></pattern></defs>
<rect width="420.0" height="297.0" fill="white"/>
<rect x="17.0" y="17.0" width="386.0" height="263.0" fill="none" stroke="#000" stroke-width="0.5"/>
<path d="M99.02,187.90 L97.62,187.90 L97.62,188.75 L99.02,188.75 Z" fill="#e8e8e8" stroke="#000" stroke-width="0.3"/>
<path d="M108.42,187.90 L107.02,187.90 L107.02,188.75 L108.42,188.75 Z" fill="#e8e8e8" stroke="#000" stroke-width="0.3"/>
<path d="M102.26,188.72 L102.08,188.72 L102.08,188.90 L102.26,188.90 Z" fill="#e8e8e8" stroke="#000" stroke-width="0.3"/>
<path d="M100.56,188.72 L100.38,188.72 L100.38,188.90 L100.56,188.90 Z" fill="#e8e8e8" stroke="#000" stroke-width="0.3"/>
<path d="M105.66,188.72 L105.48,188.72 L105.48,188.90 L105.66,188.90 Z" fill="#e8e8e8" stroke="#000" stroke-width="0.3"/>
<path d="M103.97,188.72 L103.78,188.72 L103.78,188.90 L103.97,188.90 Z" fill="#e8e8e8" stroke="#000" stroke-width="0.3"/>
<path d="M66.12,156.40 L66.12,155.00 L65.27,155.00 L65.27,156.40 Z" fill="#e8e8e8" stroke="#000" stroke-width="0.3"/>
<path d="M66.12,147.00 L66.12,145.60 L65.27,145.60 L65.27,147.00 Z" fill="#e8e8e8" stroke="#000" stroke-width="0.3"/>
<path d="M65.30,151.94 L65.30,151.76 L65.12,151.76 L65.12,151.94 Z" fill="#e8e8e8" stroke="#000" stroke-width="0.3"/>
<path d="M65.30,150.24 L65.30,150.06 L65.12,150.06 L65.12,150.24 Z" fill="#e8e8e8" stroke="#000" stroke-width="0.3"/>
<path d="M65.30,148.54 L65.30,148.36 L65.12,148.36 L65.12,148.54 Z" fill="#e8e8e8" stroke="#000" stroke-width="0.3"/>
<path d="M65.30,153.64 L65.30,153.46 L65.12,153.46 L65.12,153.64 Z" fill="#e8e8e8" stroke="#000" stroke-width="0.3"/>
<path d="M107.02,114.10 L108.42,114.10 L108.42,113.25 L107.03,113.25 Z" fill="#e8e8e8" stroke="#000" stroke-width="0.3"/>
<path d="M97.62,114.10 L99.02,114.10 L99.02,113.25 L97.62,113.25 Z" fill="#e8e8e8" stroke="#000" stroke-width="0.3"/>
<path d="M100.38,113.28 L100.56,113.28 L100.56,113.10 L100.38,113.10 Z" fill="#e8e8e8" stroke="#000" stroke-width="0.3"/>
<path d="M103.78,113.28 L103.97,113.28 L103.97,113.10 L103.78,113.10 Z" fill="#e8e8e8" stroke="#000" stroke-width="0.3"/>
<path d="M105.48,113.28 L105.66,113.28 L105.66,113.10 L105.48,113.10 Z" fill="#e8e8e8" stroke="#000" stroke-width="0.3"/>
<path d="M102.08,113.28 L102.26,113.28 L102.26,113.10 L102.08,113.10 Z" fill="#e8e8e8" stroke="#000" stroke-width="0.3"/>
<path d="M174.52,112.00 L166.52,112.00 L166.52,120.00 L174.52,120.00 Z" fill="#e8e8e8" stroke="#000" stroke-width="0.3"/>
<path d="M285.02,162.23 L140.52,162.23 L140.52,167.17 L285.02,167.17 Z" fill="#e8e8e8" stroke="#000" stroke-width="0.3"/>
<path d="M285.02,129.83 L140.52,129.83 L140.52,134.77 L285.02,134.77 Z" fill="#e8e8e8" stroke="#000" stroke-width="0.3"/>
<path d="M103.17,185.85 L102.88,185.85 L102.88,186.15 L103.17,186.15 Z" fill="#fff" stroke="#000" stroke-width="0.35"/>
<path d="M99.62,185.70 L99.02,185.70 L99.02,186.30 L99.62,186.30 Z" fill="#fff" stroke="#000" stroke-width="0.35"/>
<path d="M107.02,185.70 L106.42,185.70 L106.42,186.30 L107.02,186.30 Z" fill="#fff" stroke="#000" stroke-width="0.35"/>
<path d="M106.42,185.95 L99.62,185.95 L99.62,186.05 L106.42,186.05 Z" fill="#fff" stroke="#000" stroke-width="0.35"/>
<path d="M68.17,151.15 L68.17,150.85 L67.88,150.85 L67.88,151.15 Z" fill="#fff" stroke="#000" stroke-width="0.35"/>
<path d="M68.32,155.00 L68.32,154.40 L67.72,154.40 L67.72,155.00 Z" fill="#fff" stroke="#000" stroke-width="0.35"/>
<path d="M68.32,147.60 L68.32,147.00 L67.72,147.00 L67.72,147.60 Z" fill="#fff" stroke="#000" stroke-width="0.35"/>
<path d="M68.07,154.40 L68.07,147.60 L67.97,147.60 L67.97,154.40 Z" fill="#fff" stroke="#000" stroke-width="0.35"/>
<path d="M99.02,116.30 L99.62,116.30 L99.62,115.70 L99.02,115.70 Z" fill="#fff" stroke="#000" stroke-width="0.35"/>
<path d="M106.42,116.30 L107.02,116.30 L107.02,115.70 L106.42,115.70 Z" fill="#fff" stroke="#000" stroke-width="0.35"/>
<path d="M102.88,116.15 L103.17,116.15 L103.17,115.85 L102.88,115.85 Z" fill="#fff" stroke="#000" stroke-width="0.35"/>
<path d="M99.62,116.05 L106.42,116.05 L106.42,115.95 L99.62,115.95 Z" fill="#fff" stroke="#000" stroke-width="0.35"/>
<path d="M107.02,183.50 L107.02,188.50 L135.52,188.50 L135.52,183.50 Z" fill="url(#hatch)" stroke="#000" stroke-width="0.5"/>
<path d="M99.02,183.50 L70.52,183.50 L70.52,188.50 L99.02,188.50 Z" fill="url(#hatch)" stroke="#000" stroke-width="0.5"/>
<path d="M135.53,118.50 L135.52,183.50 L140.52,183.50 L140.52,118.50 Z" fill="url(#hatch)" stroke="#000" stroke-width="0.5"/>
<path d="M99.02,118.50 L99.02,113.50 L70.52,113.50 L70.52,118.50 Z" fill="url(#hatch)" stroke="#000" stroke-width="0.5"/>
<path d="M107.02,118.50 L135.52,118.50 L135.52,113.50 L107.02,113.50 Z" fill="url(#hatch)" stroke="#000" stroke-width="0.5"/>
<path d="M70.52,155.00 L65.53,155.00 L65.53,183.50 L70.53,183.50 Z" fill="url(#hatch)" stroke="#000" stroke-width="0.5"/>
<path d="M70.53,147.00 L70.52,118.50 L65.52,118.50 L65.53,147.00 Z" fill="url(#hatch)" stroke="#000" stroke-width="0.5"/>
<path d="M280.52,134.77 L275.52,134.77 L275.52,162.23 L280.52,162.23 Z" fill="url(#hatch)" stroke="#000" stroke-width="0.5"/>
<line x1="70.52" y1="197.50" x2="135.52" y2="197.50" stroke="#000" stroke-width="0.2"/>
<line x1="70.52" y1="198.70" x2="70.52" y2="196.30" stroke="#000" stroke-width="0.35"/>
<line x1="70.52" y1="196.70" x2="70.52" y2="191.50" stroke="#000" stroke-width="0.12"/>
<line x1="99.02" y1="198.70" x2="99.02" y2="196.30" stroke="#000" stroke-width="0.35"/>
<line x1="99.02" y1="196.70" x2="99.02" y2="191.50" stroke="#000" stroke-width="0.12"/>
<line x1="107.02" y1="198.70" x2="107.02" y2="196.30" stroke="#000" stroke-width="0.35"/>
<line x1="107.02" y1="196.70" x2="107.02" y2="191.50" stroke="#000" stroke-width="0.12"/>
<line x1="135.52" y1="198.70" x2="135.52" y2="196.30" stroke="#000" stroke-width="0.35"/>
<line x1="135.52" y1="196.70" x2="135.52" y2="191.50" stroke="#000" stroke-width="0.12"/>
<text x="84.77" y="198.90" font-size="2.5" text-anchor="middle" transform="rotate(-0.0 84.77 198.90)">2850</text>
<text x="103.02" y="198.90" font-size="2.5" text-anchor="middle" transform="rotate(-0.0 103.02 198.90)">800</text>
<text x="121.27" y="198.90" font-size="2.5" text-anchor="middle" transform="rotate(-0.0 121.27 198.90)">2850</text>
<line x1="70.52" y1="204.50" x2="135.52" y2="204.50" stroke="#000" stroke-width="0.2"/>
<line x1="70.52" y1="205.70" x2="70.52" y2="203.30" stroke="#000" stroke-width="0.35"/>
<line x1="70.52" y1="203.70" x2="70.52" y2="198.50" stroke="#000" stroke-width="0.12"/>
<line x1="135.52" y1="205.70" x2="135.52" y2="203.30" stroke="#000" stroke-width="0.35"/>
<line x1="135.52" y1="203.70" x2="135.52" y2="198.50" stroke="#000" stroke-width="0.12"/>
<text x="103.02" y="205.90" font-size="2.5" text-anchor="middle" transform="rotate(-0.0 103.02 205.90)">6500</text>
<line x1="149.52" y1="183.50" x2="149.52" y2="118.50" stroke="#000" stroke-width="0.2"/>
<line x1="150.72" y1="183.50" x2="148.32" y2="183.50" stroke="#000" stroke-width="0.35"/>
<line x1="148.72" y1="183.50" x2="143.52" y2="183.50" stroke="#000" stroke-width="0.12"/>
<line x1="150.72" y1="118.50" x2="148.32" y2="118.50" stroke="#000" stroke-width="0.35"/>
<line x1="148.72" y1="118.50" x2="143.52" y2="118.50" stroke="#000" stroke-width="0.12"/>
<text x="150.93" y="151.00" font-size="2.5" text-anchor="middle" transform="rotate(-90.0 150.93 151.00)">6500</text>
<line x1="135.52" y1="104.50" x2="70.52" y2="104.50" stroke="#000" stroke-width="0.2"/>
<line x1="135.52" y1="103.30" x2="135.52" y2="105.70" stroke="#000" stroke-width="0.35"/>
<line x1="135.52" y1="105.30" x2="135.52" y2="110.50" stroke="#000" stroke-width="0.12"/>
<line x1="107.02" y1="103.30" x2="107.02" y2="105.70" stroke="#000" stroke-width="0.35"/>
<line x1="107.02" y1="105.30" x2="107.02" y2="110.50" stroke="#000" stroke-width="0.12"/>
<line x1="99.02" y1="103.30" x2="99.02" y2="105.70" stroke="#000" stroke-width="0.35"/>
<line x1="99.02" y1="105.30" x2="99.02" y2="110.50" stroke="#000" stroke-width="0.12"/>
<line x1="70.52" y1="103.30" x2="70.52" y2="105.70" stroke="#000" stroke-width="0.35"/>
<line x1="70.52" y1="105.30" x2="70.52" y2="110.50" stroke="#000" stroke-width="0.12"/>
<text x="121.27" y="103.10" font-size="2.5" text-anchor="middle" transform="rotate(-0.0 121.27 103.10)">2850</text>
<text x="103.02" y="103.10" font-size="2.5" text-anchor="middle" transform="rotate(-0.0 103.02 103.10)">800</text>
<text x="84.77" y="103.10" font-size="2.5" text-anchor="middle" transform="rotate(-0.0 84.77 103.10)">2850</text>
<line x1="135.52" y1="97.50" x2="70.52" y2="97.50" stroke="#000" stroke-width="0.2"/>
<line x1="135.52" y1="96.30" x2="135.52" y2="98.70" stroke="#000" stroke-width="0.35"/>
<line x1="135.52" y1="98.30" x2="135.52" y2="103.50" stroke="#000" stroke-width="0.12"/>
<line x1="70.52" y1="96.30" x2="70.52" y2="98.70" stroke="#000" stroke-width="0.35"/>
<line x1="70.52" y1="98.30" x2="70.52" y2="103.50" stroke="#000" stroke-width="0.12"/>
<text x="103.02" y="96.10" font-size="2.5" text-anchor="middle" transform="rotate(-0.0 103.02 96.10)">6500</text>
<line x1="56.52" y1="118.50" x2="56.52" y2="183.50" stroke="#000" stroke-width="0.2"/>
<line x1="55.32" y1="118.50" x2="57.72" y2="118.50" stroke="#000" stroke-width="0.35"/>
<line x1="57.32" y1="118.50" x2="62.52" y2="118.50" stroke="#000" stroke-width="0.12"/>
<line x1="55.32" y1="147.00" x2="57.72" y2="147.00" stroke="#000" stroke-width="0.35"/>
<line x1="57.32" y1="147.00" x2="62.52" y2="147.00" stroke="#000" stroke-width="0.12"/>
<line x1="55.32" y1="155.00" x2="57.72" y2="155.00" stroke="#000" stroke-width="0.35"/>
<line x1="57.32" y1="155.00" x2="62.52" y2="155.00" stroke="#000" stroke-width="0.12"/>
<line x1="55.32" y1="183.50" x2="57.72" y2="183.50" stroke="#000" stroke-width="0.35"/>
<line x1="57.32" y1="183.50" x2="62.52" y2="183.50" stroke="#000" stroke-width="0.12"/>
<text x="55.12" y="132.75" font-size="2.5" text-anchor="middle" transform="rotate(90.0 55.12 132.75)">2850</text>
<text x="55.12" y="151.00" font-size="2.5" text-anchor="middle" transform="rotate(90.0 55.12 151.00)">800</text>
<text x="55.12" y="169.25" font-size="2.5" text-anchor="middle" transform="rotate(90.0 55.12 169.25)">2850</text>
<line x1="49.52" y1="118.50" x2="49.52" y2="183.50" stroke="#000" stroke-width="0.2"/>
<line x1="48.32" y1="118.50" x2="50.72" y2="118.50" stroke="#000" stroke-width="0.35"/>
<line x1="50.32" y1="118.50" x2="55.52" y2="118.50" stroke="#000" stroke-width="0.12"/>
<line x1="48.32" y1="183.50" x2="50.72" y2="183.50" stroke="#000" stroke-width="0.35"/>
<line x1="50.32" y1="183.50" x2="55.52" y2="183.50" stroke="#000" stroke-width="0.12"/>
<text x="48.12" y="151.00" font-size="2.5" text-anchor="middle" transform="rotate(90.0 48.12 151.00)">6500</text>
<text x="103.02" y="187.00" font-size="1.82" text-anchor="middle" transform="rotate(-0.0 103.02 186.00)">N7</text>
<text x="68.02" y="152.00" font-size="1.82" text-anchor="middle" transform="rotate(-0.0 68.02 151.00)">N10</text>
<text x="103.02" y="117.00" font-size="1.82" text-anchor="middle" transform="rotate(-0.0 103.02 116.00)">N12</text>
<text x="170.52" y="117.00" font-size="1.82" text-anchor="middle" transform="rotate(-0.0 170.52 116.00)">CH</text>
<text x="212.78" y="149.50" font-size="1.82" text-anchor="middle" transform="rotate(-0.0 212.78 148.50)">RM</text>
<text x="103.02" y="150.20" font-size="2.10" text-anchor="middle" transform="rotate(-0.0 103.02 149.20)">STUDY</text>
<text x="103.02" y="153.80" font-size="1.60" text-anchor="middle" transform="rotate(-0.0 103.02 152.80)">study  42.2 m²</text>
<text x="86.77" y="192.10" font-size="1.60" text-anchor="middle" transform="rotate(-0.0 86.77 191.10)">TS  rubble_wall  500</text>
<text x="143.12" y="168.25" font-size="1.60" text-anchor="middle" transform="rotate(-90.0 143.12 167.25)">TE  rubble_wall  500</text>
<text x="119.27" y="111.90" font-size="1.60" text-anchor="middle" transform="rotate(-0.0 119.27 110.90)">TN  rubble_wall  500</text>
<text x="62.92" y="135.75" font-size="1.60" text-anchor="middle" transform="rotate(90.0 62.92 134.75)">TW  rubble_wall  500</text>
<rect x="333.0" y="228.0" width="62.0" height="44" fill="none" stroke="#000" stroke-width="0.4"/>
<text x="336.0" y="234.0" font-size="4.2" font-weight="bold">bastide-montfuron</text>
<text x="336.0" y="240.4" font-size="3.2" font-weight="normal">Floor plan  L2</text>
<text x="336.0" y="245.8" font-size="2.4" font-weight="normal">Cut at +1200 mm   Scale 1:100 @ A3</text>
<text x="336.0" y="250.4" font-size="2.4" font-weight="normal">Generated 2026-09-03</text>
<text x="336.0" y="255.0" font-size="2.6" font-weight="bold">NOT FOR CONSTRUCTION</text>
<text x="336.0" y="259.8" font-size="2.0" font-weight="normal">Dimensions in mm to wall reference lines</text>
<line x1="385.0" y1="212.0" x2="386.39" y2="204.12" stroke="#000" stroke-width="0.5"/>
<text x="386.39" y="202.62" font-size="3" text-anchor="middle">N</text>
</svg>